<?xml version="1.0" encoding="UTF-8" standalone="no"?>
<!-- Created with Inkscape (http://www.inkscape.org/) -->

<svg
   xmlns:dc="http://purl.org/dc/elements/1.1/"
   xmlns:cc="http://creativecommons.org/ns#"
   xmlns:rdf="http://www.w3.org/1999/02/22-rdf-syntax-ns#"
   xmlns:svg="http://www.w3.org/2000/svg"
   xmlns="http://www.w3.org/2000/svg"
   xmlns:sodipodi="http://sodipodi.sourceforge.net/DTD/sodipodi-0.dtd"
   xmlns:inkscape="http://www.inkscape.org/namespaces/inkscape"
   width="415.99979mm"
   height="258.04352mm"
   viewBox="0 0 415.99979 258.04352"
   version="1.1"
   id="svg7352"
   inkscape:version="0.92.4 (5da689c313, 2019-01-14)"
   sodipodi:docname="PFW_Logo_Web_202003_press.svg"
   inkscape:export-filename="/data/cloud_decrypt/firma/kunden/platzfuer.wien/grafik/logo/PFW_Logo_Web_202003_press.png"
   inkscape:export-xdpi="73.269264"
   inkscape:export-ydpi="73.269264">
  <defs
     id="defs7346" />
  <sodipodi:namedview
     id="base"
     pagecolor="#ffffff"
     bordercolor="#666666"
     borderopacity="1.0"
     inkscape:pageopacity="0.0"
     inkscape:pageshadow="2"
     inkscape:zoom="0.7"
     inkscape:cx="291.51474"
     inkscape:cy="451.91502"
     inkscape:document-units="mm"
     inkscape:current-layer="layer1"
     showgrid="false"
     fit-margin-top="8"
     fit-margin-left="8"
     fit-margin-right="8"
     fit-margin-bottom="8"
     inkscape:window-width="3840"
     inkscape:window-height="2103"
     inkscape:window-x="0"
     inkscape:window-y="0"
     inkscape:window-maximized="1" />
  <metadata
     id="metadata7349">
    <rdf:RDF>
      <cc:Work
         rdf:about="">
        <dc:format>image/svg+xml</dc:format>
        <dc:type
           rdf:resource="http://purl.org/dc/dcmitype/StillImage" />
        <dc:title />
      </cc:Work>
    </rdf:RDF>
  </metadata>
  <g
     inkscape:label="Layer 1"
     inkscape:groupmode="layer"
     id="layer1"
     transform="translate(124.84513,7.4027427)">
    <g
       transform="matrix(0.35277777,0,0,-0.35277777,-175.58271,2600.6428)"
       id="g7269">
      <g
         id="g10386"
         transform="scale(0.423805)">
        <path
           d="m 3034.32,16052.8 c 0,-66 -25.66,-128.1 -72.36,-174.7 -46.72,-46.7 -108.79,-72.5 -174.8,-72.5 -136.28,0 -247.17,110.9 -247.17,247.2 0,65.9 25.75,128 72.44,174.8 46.65,46.7 108.71,72.4 174.73,72.4 66.01,0 128.08,-25.7 174.8,-72.4 46.7,-46.8 72.36,-108.9 72.36,-174.8"
           style="fill:#ffffff;fill-opacity:1;fill-rule:nonzero;stroke:none"
           id="path10388"
           inkscape:connector-curvature="0" />
      </g>
      <g
         id="g10390"
         transform="scale(0.423805)">
        <path
           d="m 2506.01,16223.1 v -340.6 c 0,-42.4 -34.46,-76.9 -76.77,-76.9 h -340.71 c -42.36,0 -76.85,34.5 -76.85,76.9 v 340.6 c 0,42.4 34.49,76.9 76.85,76.9 h 340.71 c 42.31,0 76.77,-34.5 76.77,-76.9"
           style="fill:#ffffff;fill-opacity:1;fill-rule:nonzero;stroke:none"
           id="path10392"
           inkscape:connector-curvature="0" />
      </g>
      <g
         id="g10394"
         transform="scale(0.423805)">
        <path
           d="m 1977.72,16223.1 v -340.6 c 0,-42.4 -34.49,-76.9 -76.86,-76.9 h -340.63 c -42.38,0 -76.79,34.5 -76.79,76.9 v 340.6 c 0,42.4 34.41,76.9 76.79,76.9 h 340.63 c 42.37,0 76.86,-34.5 76.86,-76.9"
           style="fill:#ffffff;fill-opacity:1;fill-rule:nonzero;stroke:none"
           id="path10396"
           inkscape:connector-curvature="0" />
      </g>
      <g
         id="g10398"
         transform="scale(0.423805)">
        <path
           d="m 1449.41,16223.1 v -340.6 c 0,-42.4 -34.41,-76.9 -76.79,-76.9 h -340.63 c -42.442,0 -76.859,34.5 -76.859,76.9 v 340.6 c 0,42.4 34.417,76.9 76.859,76.9 h 340.63 c 42.38,0 76.79,-34.5 76.79,-76.9"
           style="fill:#ffffff;fill-opacity:1;fill-rule:nonzero;stroke:none"
           id="path10400"
           inkscape:connector-curvature="0" />
      </g>
      <g
         id="g10402"
         transform="scale(0.423805)">
        <path
           d="m 921.111,16223.1 v -340.6 c 0,-42.4 -34.427,-76.9 -76.788,-76.9 H 503.678 c -42.371,0 -76.852,34.5 -76.852,76.9 v 340.6 c 0,42.4 34.481,76.9 76.852,76.9 h 340.645 c 42.361,0 76.788,-34.5 76.788,-76.9"
           style="fill:#ffffff;fill-opacity:1;fill-rule:nonzero;stroke:none"
           id="path10404"
           inkscape:connector-curvature="0" />
      </g>
      <g
         id="g10406"
         transform="scale(0.437539)">
        <path
           d="m 892.189,16225.6 v -330 c 0,-41 -33.337,-74.4 -74.368,-74.4 H 487.868 c -41.041,0 -74.439,33.4 -74.439,74.4 v 330 c 0,41.1 33.398,74.4 74.439,74.4 h 329.953 c 41.031,0 74.368,-33.3 74.368,-74.4"
           style="fill:#ffffff;fill-opacity:1;fill-rule:nonzero;stroke:none"
           id="path10408"
           inkscape:connector-curvature="0" />
      </g>
      <g
         id="g10410"
         transform="scale(0.437539)">
        <path
           d="m 1403.92,16225.6 v -330 c 0,-41 -33.33,-74.4 -74.38,-74.4 H 999.59 c -41.103,0 -74.439,33.4 -74.439,74.4 v 330 c 0,41.1 33.336,74.4 74.439,74.4 h 329.95 c 41.05,0 74.38,-33.3 74.38,-74.4"
           style="fill:#ffffff;fill-opacity:1;fill-rule:nonzero;stroke:none"
           id="path10412"
           inkscape:connector-curvature="0" />
      </g>
      <g
         id="g10414"
         transform="scale(0.437539)">
        <path
           d="m 1915.64,16225.6 v -330 c 0,-41 -33.4,-74.4 -74.44,-74.4 h -329.95 c -41.03,0 -74.38,33.4 -74.38,74.4 v 330 c 0,41.1 33.35,74.4 74.38,74.4 h 329.95 c 41.04,0 74.44,-33.3 74.44,-74.4"
           style="fill:#ffffff;fill-opacity:1;fill-rule:nonzero;stroke:none"
           id="path10416"
           inkscape:connector-curvature="0" />
      </g>
      <g
         id="g10418"
         transform="scale(0.437539)">
        <path
           d="m 2427.35,16060.6 c 0,-63.9 -24.86,-124 -70.09,-169.3 -45.23,-45.2 -105.31,-70.1 -169.32,-70.1 -132.01,0 -239.41,107.4 -239.41,239.4 0,63.9 24.94,124 70.11,169.3 45.24,45.2 105.37,70.1 169.3,70.1 64.01,0 124.09,-24.9 169.32,-70.1 45.23,-45.3 70.09,-105.4 70.09,-169.3"
           style="fill:#ffffff;fill-opacity:1;fill-rule:nonzero;stroke:none"
           id="path10420"
           inkscape:connector-curvature="0" />
      </g>
      <g
         id="g10422"
         transform="scale(0.437539)">
        <path
           d="m 2939.08,16060.6 c 0,-63.9 -24.86,-124 -70.1,-169.3 -45.25,-45.2 -105.37,-70.1 -169.31,-70.1 -132.01,0 -239.4,107.4 -239.4,239.4 0,63.9 24.92,124 70.16,169.3 45.19,45.2 105.29,70.1 169.24,70.1 63.94,0 124.06,-24.9 169.31,-70.1 45.24,-45.3 70.1,-105.4 70.1,-169.3"
           style="fill:#ffffff;fill-opacity:1;fill-rule:nonzero;stroke:none"
           id="path10424"
           inkscape:connector-curvature="0" />
      </g>
      <g
         id="g10426"
         transform="scale(0.451277)">
        <path
           d="m 2849.61,16227.8 v -320 c 0,-39.8 -32.38,-72.1 -72.18,-72.1 h -319.9 c -39.79,0 -72.16,32.3 -72.16,72.1 v 320 c 0,39.8 32.37,72.2 72.16,72.2 h 319.9 c 39.8,0 72.18,-32.4 72.18,-72.2"
           style="fill:#ffffff;fill-opacity:1;fill-rule:nonzero;stroke:none"
           id="path10428"
           inkscape:connector-curvature="0" />
      </g>
      <g
         id="g10430"
         transform="scale(0.451277)">
        <path
           d="m 2353.45,16227.8 v -320 c 0,-39.8 -32.36,-72.1 -72.1,-72.1 h -319.96 c -39.78,0 -72.17,32.3 -72.17,72.1 v 320 c 0,39.8 32.39,72.2 72.17,72.2 h 319.96 c 39.74,0 72.1,-32.4 72.1,-72.2"
           style="fill:#ffffff;fill-opacity:1;fill-rule:nonzero;stroke:none"
           id="path10432"
           inkscape:connector-curvature="0" />
      </g>
      <g
         id="g10434"
         transform="scale(0.451277)">
        <path
           d="m 1857.32,16227.8 v -320 c 0,-39.8 -32.38,-72.1 -72.17,-72.1 h -319.91 c -39.79,0 -72.11,32.3 -72.11,72.1 v 320 c 0,39.8 32.32,72.2 72.11,72.2 h 319.91 c 39.79,0 72.17,-32.4 72.17,-72.2"
           style="fill:#ffffff;fill-opacity:1;fill-rule:nonzero;stroke:none"
           id="path10436"
           inkscape:connector-curvature="0" />
      </g>
      <g
         id="g10438"
         transform="scale(0.451277)">
        <path
           d="m 1361.18,16227.8 v -320 c 0,-39.8 -32.33,-72.1 -72.11,-72.1 H 969.159 c -39.851,0 -72.172,32.3 -72.172,72.1 v 320 c 0,39.8 32.321,72.2 72.172,72.2 h 319.911 c 39.78,0 72.11,-32.4 72.11,-72.2"
           style="fill:#ffffff;fill-opacity:1;fill-rule:nonzero;stroke:none"
           id="path10440"
           inkscape:connector-curvature="0" />
      </g>
      <g
         id="g10442"
         transform="scale(0.451277)">
        <path
           d="m 865.037,16227.8 v -320 c 0,-39.8 -32.331,-72.1 -72.113,-72.1 H 473.016 c -39.792,0 -72.173,32.3 -72.173,72.1 v 320 c 0,39.8 32.381,72.2 72.173,72.2 h 319.908 c 39.782,0 72.113,-32.4 72.113,-72.2"
           style="fill:#ffffff;fill-opacity:1;fill-rule:nonzero;stroke:none"
           id="path10444"
           inkscape:connector-curvature="0" />
      </g>
      <g
         id="g10506"
         transform="scale(0.45216)">
        <path
           d="m 2452.74,15804.8 c -39.72,0 -72.03,32.3 -72.03,72 v 319.3 c 0,39.7 32.31,72.1 72.03,72.1 h 319.27 c 39.72,0 72.03,-32.4 72.03,-72.1 v -319.3 c 0,-39.7 -32.31,-72 -72.03,-72 z m 323.48,-99.8 c 43.76,-43.7 67.82,-101.9 67.82,-163.7 0,-61.8 -24.06,-120 -67.82,-163.8 -43.8,-43.7 -101.96,-67.8 -163.84,-67.8 -127.75,0 -231.67,103.9 -231.67,231.6 0,61.8 24.13,120 67.89,163.7 43.74,43.8 101.89,67.9 163.78,67.9 61.88,0 120.04,-24.1 163.84,-67.9 z m 0,-495 c 43.76,-43.8 67.82,-102 67.82,-163.9 0,-61.8 -24.06,-120 -67.82,-163.7 -43.8,-43.8 -101.96,-67.9 -163.84,-67.9 -127.75,0 -231.67,103.9 -231.67,231.6 0,61.9 24.13,120.1 67.89,163.9 43.74,43.8 101.89,67.8 163.78,67.8 61.88,0 120.04,-24 163.84,-67.8 z m -427.36,666.8 c 0,-39.7 -32.3,-72 -71.97,-72 h -319.33 c -39.71,0 -72.03,32.3 -72.03,72 v 319.3 c 0,39.7 32.32,72.1 72.03,72.1 h 319.33 c 39.67,0 71.97,-32.4 71.97,-72.1 z m -67.83,-499.3 c -43.77,-43.7 -101.9,-67.8 -163.83,-67.8 -127.75,0 -231.67,103.9 -231.67,231.6 0,61.8 24.13,120 67.84,163.7 43.77,43.8 101.95,67.9 163.83,67.9 61.93,0 120.06,-24.1 163.83,-67.9 43.78,-43.7 67.83,-101.9 67.83,-163.7 0,-61.8 -24.05,-120 -67.83,-163.8 z m 67.83,-491 c 0,-39.7 -32.3,-72 -71.97,-72 h -319.33 c -39.71,0 -72.03,32.3 -72.03,72 v 319.3 c 0,39.7 32.32,72 72.03,72 h 319.33 c 39.67,0 71.97,-32.3 71.97,-72 z m -495.16,990.3 c 0,-39.7 -32.32,-72 -72.04,-72 h -319.28 c -39.7,0 -71.97,32.3 -71.97,72 v 319.3 c 0,39.7 32.27,72.1 71.97,72.1 h 319.28 c 39.72,0 72.04,-32.4 72.04,-72.1 z m 0,-495.1 c 0,-39.7 -32.32,-72 -72.04,-72 h -319.28 c -39.7,0 -71.97,32.3 -71.97,72 v 319.2 c 0,39.7 32.27,72 71.97,72 h 319.28 c 39.72,0 72.04,-32.3 72.04,-72 z m 0,-495.2 c 0,-39.7 -32.32,-72 -72.04,-72 h -319.28 c -39.7,0 -71.97,32.3 -71.97,72 v 319.3 c 0,39.7 32.27,72 71.97,72 h 319.28 c 39.72,0 72.04,-32.3 72.04,-72 z m -495.18,990.3 c 0,-39.7 -32.26,-72 -71.98,-72 H 967.267 c -39.774,0 -72.032,32.3 -72.032,72 v 319.3 c 0,39.7 32.258,72.1 72.032,72.1 h 319.273 c 39.72,0 71.98,-32.4 71.98,-72.1 z m 0,-495.1 c 0,-39.7 -32.26,-72 -71.98,-72 H 967.267 c -39.774,0 -72.032,32.3 -72.032,72 v 319.2 c 0,39.7 32.258,72 72.032,72 h 319.273 c 39.72,0 71.98,-32.3 71.98,-72 z m 0,-495.2 c 0,-39.7 -32.26,-72 -71.98,-72 H 967.267 c -39.774,0 -72.032,32.3 -72.032,72 v 319.3 c 0,39.7 32.258,72 72.032,72 h 319.273 c 39.72,0 71.98,-32.3 71.98,-72 z m -495.172,990.3 c 0,-39.7 -32.268,-72 -71.972,-72 H 472.092 c -39.714,0 -72.032,32.3 -72.032,72 v 319.3 c 0,39.7 32.318,72.1 72.032,72.1 h 319.284 c 39.704,0 71.972,-32.4 71.972,-72.1 z m 0,-495.1 c 0,-39.7 -32.268,-72 -71.972,-72 H 472.092 c -39.714,0 -72.032,32.3 -72.032,72 v 319.2 c 0,39.7 32.318,72 72.032,72 h 319.284 c 39.704,0 71.972,-32.3 71.972,-72 z m 0,-495.2 c 0,-39.7 -32.268,-72 -71.972,-72 H 472.092 c -39.714,0 -72.032,32.3 -72.032,72 v 319.3 c 0,39.7 32.318,72 72.032,72 h 319.284 c 39.704,0 71.972,-32.3 71.972,-72 z m 2012.532,990.3 v 319.3 c 0,57.3 -46.61,103.9 -103.87,103.9 h -319.27 c -37.01,0 -69.58,-19.5 -87.93,-48.7 -18.41,29.2 -50.97,48.7 -87.92,48.7 h -319.33 c -37,0 -69.56,-19.5 -87.91,-48.7 -18.41,29.2 -50.98,48.7 -87.99,48.7 h -319.28 c -37,0 -69.57,-19.5 -87.91,-48.7 -18.35,29.2 -50.92,48.7 -87.93,48.7 H 967.267 c -37.06,0 -69.631,-19.5 -87.98,-48.7 -18.35,29.2 -50.909,48.7 -87.911,48.7 H 472.092 c -57.261,0 -103.859,-46.6 -103.859,-103.9 v -319.3 c 0,-37 19.446,-69.6 48.699,-88 -29.253,-18.3 -48.699,-50.9 -48.699,-87.9 v -319.2 c 0,-37 19.446,-69.6 48.699,-87.9 -29.253,-18.4 -48.699,-51 -48.699,-88 v -319.3 c 0,-57.3 46.598,-103.9 103.859,-103.9 h 319.284 c 37.002,0 69.561,19.5 87.911,48.7 18.349,-29.2 50.92,-48.7 87.98,-48.7 h 319.273 c 37.01,0 69.58,19.5 87.93,48.7 18.34,-29.2 50.91,-48.7 87.91,-48.7 h 319.28 c 37.01,0 69.58,19.5 87.99,48.7 18.35,-29.2 50.91,-48.7 87.91,-48.7 h 319.33 c 57.26,0 103.82,46.6 103.82,103.9 v 34.1 c 44.7,-82.1 131.74,-138 231.67,-138 70.37,0 136.55,27.4 186.34,77.2 49.77,49.8 77.16,115.9 77.16,186.3 0,70.4 -27.39,136.6 -77.16,186.4 -27.58,27.5 -60.13,48.2 -95.71,61.2 35.58,13.1 68.13,33.8 95.71,61.4 49.77,49.7 77.16,115.8 77.16,186.2 0,70.3 -27.39,136.5 -77.16,186.3 -18.2,18.1 -38.59,33.3 -60.58,45.3 h 33.87 c 57.26,0 103.87,46.6 103.87,103.9"
           style="fill:#f46b2c;fill-opacity:1;fill-rule:nonzero;stroke:none"
           id="path10508"
           inkscape:connector-curvature="0" />
      </g>
      <g
         id="g10514"
         transform="scale(0.435113)">
        <path
           d="m 2166.92,16137.5 c 4.28,5.7 7.38,12.1 9.11,18.7 6.19,-2 12,-3.3 17.64,-3.8 v -41.6 z m 38.91,-26.7 v 41.6 c 6.61,0.5 12.52,1.8 17.65,3.7 1.65,-6.6 4.63,-12.7 9.09,-18.6 z m 28.42,54.2 c -0.04,1.9 -1.13,3.7 -2.97,4.9 l -0.13,0.1 c -1.23,0.6 -2.04,0.6 -2.98,0.6 -0.55,0 -1.75,0 -2.71,-0.7 -8.1,-3.6 -16.68,-5.5 -24.87,-5.5 h -1.68 c -8.39,0 -16.84,1.9 -25.14,5.6 l -0.16,0.1 c -0.82,0.3 -1.67,0.4 -2.5,0.4 -0.86,0 -1.69,-0.1 -2.53,-0.4 l -0.22,-0.1 -0.22,-0.1 c -1.77,-1.2 -2.85,-3.1 -2.9,-4.9 -1.6,-20.4 -19,-36.4 -39.64,-36.4 -22.1,0 -40.07,18 -40.07,40.1 0,9.9 3.68,19.3 10.63,27.1 l 0.1,0.1 c 1.78,2.4 1.78,5.8 0,8.2 l -0.1,0.1 c -6.95,7.7 -10.63,17.1 -10.63,27.1 0,22.1 17.97,40.1 40.07,40.1 7.15,0 14.21,-2.1 20.39,-5.9 l 0.08,-0.1 h 0.1 c 0.97,-0.5 2.02,-0.8 3.02,-0.8 1.71,0 3.29,0.7 4.56,2 l 0.1,0.1 c 11.6,13.2 28.33,20.7 45.9,20.7 22.36,0 43.01,-12.2 53.85,-31.8 1.01,-2.1 3.18,-3.3 5.65,-3.3 0.49,0 0.96,0 1.43,0.1 l 0.14,0.1 h 0.12 c 3.95,1.3 7.37,2 10.45,2 17.12,0 31.05,-13.9 31.05,-31.1 0,-5.8 -1.56,-11.2 -4.57,-15.7 -0.91,-1.2 -1.28,-2.6 -1.04,-4.1 0.21,-1.6 1.04,-3 2.23,-3.9 9.47,-7.5 14.9,-18.8 14.9,-31 0,-22.1 -17.98,-40.1 -40.06,-40.1 -20.64,0 -38.05,16 -39.65,36.4 z m 77.03,41.2 c 2.49,5.4 3.73,11.3 3.73,17.7 0,23.8 -19.38,43.2 -43.17,43.2 -3.23,0 -6.21,-0.3 -9.78,-1 -13.7,20.9 -37.29,33.9 -61.91,33.9 -19.25,0 -38.08,-7.8 -51.88,-21.4 -7.21,3.5 -14.83,5.4 -22.67,5.4 -28.8,0 -52.23,-23.5 -52.23,-52.3 0,-11.7 3.57,-22.2 10.62,-31.3 -6.96,-9.5 -10.62,-20.3 -10.62,-31.3 0,-29 23.43,-52.7 52.23,-52.7 12.03,0 23.49,4.2 33.24,12.1 l 35.23,-35.2 v -86.9 c 0,-3.5 2.56,-6 6.08,-6 3.54,0 6.1,2.5 6.1,6 v 87.3 l 35.23,35.3 c 9.74,-8 21.2,-12.1 33.26,-12.1 28.78,0 52.17,23.4 52.17,52.2 0,14.2 -5.54,27.3 -15.63,37.1"
           style="fill:#275796;fill-opacity:1;fill-rule:nonzero;stroke:none"
           id="path10516"
           inkscape:connector-curvature="0" />
      </g>
      <g
         id="g10518"
         transform="scale(0.420044)">
        <path
           d="m 2908.11,16103.3 c -29.79,0 -54.03,24.2 -54.03,54 0,21.9 13.5,41.9 33.74,50.1 l 15.95,-54.9 c 0.75,-2.6 3.14,-4.4 5.76,-4.4 0.57,0 1.12,0.1 1.67,0.3 3.14,0.9 4.95,4.3 4.07,7.4 l -15.93,54.8 c 2.88,0.5 5.84,0.7 8.77,0.7 29.79,0 54.03,-24.2 54.03,-54 0,-29.8 -24.24,-54 -54.03,-54 z m -97.06,69.6 v 0.1 l -2.19,-2.4 c -1.98,1.1 -4.16,1.7 -6.43,1.9 l -12.62,44.8 86.46,29.7 1.22,-4.1 z m -23.61,-9.6 h -2.63 c -1.22,13.7 -6.57,26.5 -15.58,37 l 10.08,10.1 10.71,-37.9 1.11,-4 c -1.57,-1.5 -2.82,-3.3 -3.69,-5.2 z m -55.22,0 28.33,28.3 c 6.74,-8.1 10.86,-17.9 12,-28.3 z m -13.38,-60 c -29.79,0 -54.02,24.2 -54.02,54 0,29.8 24.23,54 54.02,54 11.99,0 23.71,-4 33.16,-11.3 l -38.33,-38.3 c -1.19,-1.3 -1.8,-2.8 -1.76,-4.4 0,-3.3 2.69,-6 5.97,-6 h 54.67 c -3,-27.4 -25.93,-48 -53.71,-48 z m 189.27,120.2 c -4.12,0 -8.23,-0.3 -12.19,-1.1 l -19.1,65.6 h 1.71 c 3.29,0 5.98,2.7 5.98,6 0,3.3 -2.69,6 -5.98,6 h -35.83 c -3.31,0 -6,-2.7 -6,-6 0,-3.3 2.69,-6 6,-6 h 21.62 l 8.71,-29.9 -86.4,-29.7 -9.37,33.2 h 10.62 c 3.28,0 5.98,2.7 5.98,6 0,3.4 -2.7,6 -5.98,6 h -30.34 c -3.28,0 -5.98,-2.6 -5.98,-6 0,-3.3 2.7,-6 5.98,-6 h 7.22 l 5.22,-18.3 h -84.85 c -3.28,0 -5.97,-2.7 -5.97,-6 0,-3.3 2.69,-6 5.97,-6 h 88.25 l 2.19,-7.7 -14.9,-15 c -11.79,9.7 -26.6,14.9 -41.83,14.9 -36.53,0 -66.23,-29.7 -66.23,-66.2 0,-36.5 29.7,-66.2 66.23,-66.2 34.11,0 62.92,26.4 65.97,60.2 h 2.52 c 2.31,-5.6 7.84,-9.4 13.91,-9.5 h 0.27 c 8.32,0 15.2,6.8 15.35,15.1 0.02,1.5 -0.15,3 -0.53,4.3 l 2,2.2 62.8,67 3.24,-11.3 c -25.48,-9.7 -42.5,-34.5 -42.5,-61.8 0,-36.5 29.71,-66.2 66.24,-66.2 36.52,0 66.23,29.7 66.23,66.2 0,36.5 -29.71,66.2 -66.23,66.2"
           style="fill:#275796;fill-opacity:1;fill-rule:nonzero;stroke:none"
           id="path10520"
           inkscape:connector-curvature="0" />
      </g>
      <g
         id="g10522"
         transform="scale(0.43152)">
        <path
           d="m 2657.89,16262.1 c -7.84,0 -14.19,6.3 -14.19,14.1 0,7.9 6.35,14.2 14.19,14.2 7.81,0 14.13,-6.3 14.13,-14.2 0,-7.8 -6.32,-14.1 -14.13,-14.1 z m 0,37.9 c -13.12,0 -23.78,-10.7 -23.78,-23.8 0,-13.1 10.66,-23.7 23.78,-23.7 13.08,0 23.75,10.6 23.75,23.7 0,13.1 -10.67,23.8 -23.75,23.8"
           style="fill:#275796;fill-opacity:1;fill-rule:nonzero;stroke:none"
           id="path10524"
           inkscape:connector-curvature="0" />
      </g>
      <g
         id="g10526"
         transform="scale(0.43483)">
        <path
           d="m 2793.6,16266.6 c -1.13,-10.3 -9.78,-18.1 -20.16,-18.1 -0.75,0 -1.49,0.1 -2.21,0.1 -5.38,0.6 -10.24,3.3 -13.59,7.5 -3.44,4.2 -4.97,9.5 -4.41,14.9 1.14,10.3 9.79,18.1 20.17,18.1 0.75,0 1.48,0 2.21,-0.1 11.13,-1.2 19.18,-11.2 17.99,-22.4 z m 4.11,21.7 c -5.18,6.5 -12.65,10.6 -20.9,11.5 -1.07,0.2 -2.26,0.2 -3.41,0.2 -15.93,0 -29.27,-11.9 -30.97,-27.8 -0.89,-8.3 1.48,-16.4 6.72,-22.9 5.17,-6.5 12.63,-10.6 20.93,-11.5 1.02,-0.1 2.21,-0.2 3.36,-0.2 15.98,0 29.26,12 31.02,27.9 0.9,8.2 -1.53,16.4 -6.75,22.8"
           style="fill:#275796;fill-opacity:1;fill-rule:nonzero;stroke:none"
           id="path10528"
           inkscape:connector-curvature="0" />
      </g>
      <g
         id="g10530"
         transform="scale(0.43314)">
        <path
           d="m 2855.98,16238.5 c -0.55,-3.6 -3.58,-6.2 -7.16,-6.2 -0.39,0 -0.78,0 -1.22,0.1 l -26.37,3.9 c -7.35,1.3 -13.55,5.1 -17.39,10.8 l -0.87,1.3 c -0.77,1.1 -1.55,2.4 -2.6,3.7 -1.09,1.4 -2.75,2.1 -4.51,2.1 -0.36,0 -0.72,0 -1.06,0 -2.09,-0.5 -3.8,-1.9 -4.44,-4 l -16.96,-53.7 c -0.64,-2.1 -0.12,-4.3 1.45,-5.8 l 23.53,-23.6 c 2.77,-2.7 5.18,-6.5 6.66,-10.3 l 14.12,-52.1 c 0.04,-0.1 0.12,-0.3 0.16,-0.4 0.81,-2.3 0.7,-4.7 -0.35,-6.9 -1.05,-2.2 -2.95,-3.9 -5.26,-4.6 -1.25,-0.4 -2.05,-0.6 -3.06,-0.6 -3.86,0 -7.44,2.5 -8.88,6.1 l -14.17,52 c -0.08,0.3 -0.19,0.7 -0.37,1.1 -0.26,0.4 -0.44,0.8 -0.67,1.1 l -0.17,0.2 h -0.04 c -0.25,0.6 -0.62,1.1 -1.04,1.6 l -10.7,10.7 -3.36,3.4 -23.25,23.4 -3.34,3.4 -1.35,1.3 c -4.54,4.6 -6.36,10.8 -5.05,17.1 l 9.18,40.8 c 0.56,2.3 -0.38,4.7 -2.32,6 -0.97,0.7 -2.1,1 -3.28,1 -1.13,0 -2.26,-0.3 -3.18,-0.9 -0.81,-0.6 -1.42,-1 -2.17,-1.4 -0.12,0 -0.25,-0.1 -0.35,-0.1 -3.35,-1.9 -6.24,-4.9 -8.29,-8.7 l -17.8,-34.2 c -1.25,-2.3 -3.81,-3.8 -6.42,-3.8 -0.97,0 -2.1,0.2 -3.42,0.8 -3.38,1.9 -4.66,6.2 -2.95,9.7 l 17.73,34.2 c 3.28,6 7.99,10.9 13.71,14.4 26.57,15.8 32.99,17.7 35.48,17.7 0.28,0 0.54,-0.1 0.81,-0.1 l 21.98,-1.4 c 3.75,-0.2 7.31,-0.4 28.83,-32 0.05,-0.1 0.1,-0.2 0.18,-0.2 1.86,-2.5 4.38,-4 7.47,-4.6 l 26.37,-4 c 3.62,-0.6 6.28,-3.6 6.28,-7.2 0,-0.3 -0.05,-0.7 -0.12,-1.1 z m -119.43,-139.7 c -1.31,-3.5 -4.64,-5.8 -8.33,-5.8 -1.04,0 -2.1,0.1 -3.07,0.5 -2.22,0.8 -4,2.4 -4.99,4.6 -0.99,2.2 -1.08,4.5 -0.3,6.7 l 26.51,71.8 13.68,-13.8 z m -43.31,99.2 -10.51,-13.1 c -4.24,-5.1 -9.88,-9 -16.33,-11.1 -2.4,-0.7 -3.88,-3.2 -3.42,-5.8 l 7.42,-38.5 c 0.06,-0.2 0.07,-0.4 0.17,-0.5 0.11,-0.5 0.07,-0.8 -0.17,-1.1 -0.22,-0.4 -0.57,-0.5 -1.05,-0.5 -2.8,0 -5.05,-2.3 -5.05,-5.1 0,-0.5 0.09,-1.1 0.22,-1.4 l 2.93,-25.9 c 0.3,-2.4 -1.29,-3.7 -2.84,-4 h -0.74 c -1.87,0 -3.39,1.4 -3.58,3.3 l -3.21,27.5 c -0.18,3.3 -2.83,5.8 -6.13,5.8 h -6.47 c -2.63,0 -5.06,-1.8 -5.86,-4.3 l -16.74,-30.9 c -0.69,-0.9 -1.8,-1.4 -2.91,-1.4 -0.55,0 -1.11,0.1 -1.64,0.4 -0.11,0.1 -0.23,0.1 -0.32,0.2 -1.67,1.2 -2.1,3.5 -0.99,5 0.07,0.1 0.18,0.2 0.22,0.3 l 14.27,22.9 c 0.98,1.6 1.01,3.6 0.12,5.2 -0.88,1.6 -2.62,2.6 -4.44,2.6 h -0.5 c -0.53,0 -0.85,0.3 -1.01,0.5 -0.25,0.3 -0.26,0.7 -0.15,1.1 0.07,0.2 0.12,0.5 0.18,0.8 l 3.71,25.2 c 0.31,2.1 -0.74,4.1 -2.62,5.2 -0.73,0.4 -1.59,0.6 -2.39,0.6 -1.25,0 -2.45,-0.5 -3.4,-1.3 l -14.6,-13.1 c -0.74,-0.6 -1.48,-0.9 -2.48,-0.9 -0.75,0 -1.83,0.2 -2.64,1.1 -1.29,1.4 -1.17,3.7 0.24,5.1 l 8.86,7.7 16.34,14.9 c 3.43,3.1 7.6,4.7 12.11,4.7 h 18.04 c 8.02,0 16.05,3.9 21.41,10.3 l 10.45,13 c 0.72,0.9 1.82,1.4 2.98,1.4 0.53,0 1.39,-0.2 2.17,-0.8 0.74,-0.6 1.2,-1.4 1.3,-2.4 0.07,-0.9 -0.22,-1.9 -0.95,-2.7 z m 170.25,52.3 c -2.89,4 -7.11,6.5 -11.94,7.3 l -26.38,4 c -0.24,0.1 -0.24,0.1 -0.36,0.3 -22.51,32.9 -28.1,36.2 -37.21,36.6 l -21.63,1.4 h -0.31 c -0.5,0.1 -0.96,0.1 -1.48,0.1 -4.81,0 -11.23,-1.4 -41.13,-19.2 -7.39,-4.5 -13.51,-11 -17.71,-18.7 l -17.83,-34.3 c -2.33,-4.7 -2.61,-10.1 -0.74,-14.9 -2.51,-0.8 -4.73,-2.3 -6.44,-4.4 l -10.43,-12.9 c -3.56,-4.3 -8.8,-6.8 -14.02,-6.8 h -18.04 c -6.89,0 -13.31,-2.5 -18.52,-7.2 l -16.3,-14.8 -7.3,-6.4 -1.48,-1.3 c -0.06,0 -0.14,-0.1 -0.18,-0.2 -5.29,-4.9 -5.73,-13.1 -0.92,-18.5 2.47,-2.7 5.93,-4.3 9.83,-4.3 3.34,0 6.3,1.1 8.8,3.3 l 5.36,4.8 -1.85,-12.5 c -0.89,-3.2 -0.28,-6.6 1.7,-9.3 0.64,-0.9 1.47,-1.7 2.36,-2.3 l -11.15,-18 c -4.09,-5.8 -2.65,-14 3.18,-18.2 0.46,-0.4 0.98,-0.7 1.53,-1 1.87,-0.9 3.97,-1.5 6.02,-1.5 4.28,0 8.34,2.1 10.83,5.5 0.11,0.2 0.24,0.4 0.3,0.5 l 16.62,30.6 h 1.26 l 2.86,-24.8 c 0.62,-6.7 6.27,-11.8 13.08,-11.8 h 1.09 c 0.16,0 0.39,0.1 0.57,0.1 7.32,1 12.33,7.4 11.41,14.6 l -2.61,22.9 c 1.48,0.7 2.79,1.9 3.76,3.2 2,2.7 2.59,6.2 1.64,9.3 l -6.65,34.6 c 6.64,2.8 12.54,7.2 17.09,12.8 l 10.46,13 c 2.24,2.7 3.32,6 3.09,9.4 6.61,0.1 12.86,3.8 16.03,9.7 l 11.86,22.9 -4.04,-17.9 c -2.1,-9.9 0.88,-20.1 8.01,-27.2 l 2.34,-2.4 -28.63,-77.7 c -1.87,-5 -1.69,-10.4 0.57,-15.3 2.27,-4.9 6.35,-8.7 11.53,-10.6 2.21,-0.8 4.5,-1.2 6.83,-1.2 8.29,0 15.93,5.3 18.95,13.2 l 22.07,60.1 7.79,-7.8 c 0.07,-0.1 0.1,-0.2 0.23,-0.3 l 14.03,-51.7 c 0.05,-0.1 0.09,-0.2 0.16,-0.5 3.05,-8 10.75,-13.3 19.2,-13.3 2.2,0 4.14,0.3 6.52,1.1 5.06,1.7 9.31,5.4 11.68,10.3 2.3,4.8 2.57,10.2 0.82,15.1 l -14.15,52.1 c -0.06,0.2 -0.09,0.3 -0.17,0.5 -2.03,5.4 -5.34,10.6 -9.21,14.5 l -21.33,21.3 12.92,41 c 5.57,-6.1 13.07,-10.2 21.77,-11.6 l 26.39,-4.1 c 0.97,-0.1 1.94,-0.2 2.93,-0.2 4.35,0 8.55,1.6 11.83,4.4 3.25,2.8 5.45,6.7 6.14,11.1 0.74,4.8 -0.42,9.6 -3.3,13.5"
           style="fill:#275796;fill-opacity:1;fill-rule:nonzero;stroke:none"
           id="path10532"
           inkscape:connector-curvature="0" />
      </g>
      <g
         id="g10554"
         transform="scale(0.420807)">
        <path
           d="m 1189.39,16044.3 c -1.67,1.6 -2.5,3.6 -2.5,6 v 167.7 c 0,2.6 0.83,4.6 2.5,6.2 1.65,1.5 3.66,2.3 6.03,2.3 h 30.19 c 2.37,0 4.38,-0.8 6.04,-2.5 1.65,-1.7 2.48,-3.7 2.48,-6 v -167.7 c 0,-2.4 -0.83,-4.4 -2.48,-6 -1.66,-1.7 -3.67,-2.5 -6.04,-2.5 h -30.19 c -2.37,0 -4.38,0.8 -6.03,2.5 z m -1.43,214.9 c -1.65,1.6 -2.49,3.6 -2.49,6 v 25.9 c 0,2.6 0.84,4.8 2.49,6.4 1.66,1.7 3.67,2.5 6.04,2.5 h 32.68 c 2.6,0 4.73,-0.8 6.39,-2.5 1.65,-1.6 2.49,-3.8 2.49,-6.4 v -25.9 c 0,-2.4 -0.9,-4.4 -2.66,-6 -1.78,-1.7 -3.86,-2.5 -6.22,-2.5 H 1194 c -2.37,0 -4.38,0.8 -6.04,2.5"
           style="fill:#275796;fill-opacity:1;fill-rule:nonzero;stroke:none"
           id="path10556"
           inkscape:connector-curvature="0" />
      </g>
      <g
         id="g10558"
         transform="scale(0.448053)">
        <path
           d="m 641.378,16189.9 c 12.893,0 22.738,3.1 29.521,9.2 6.774,6.1 10.172,15.1 10.172,26.8 0,11.6 -3.285,20.6 -9.842,27 -6.564,6.5 -16.511,9.7 -29.851,9.7 h -48.037 v -72.7 z m -93.4,-121.1 c -1.56,1.6 -2.335,3.5 -2.335,5.7 v 217.2 c 0,2.4 0.714,4.4 2.169,6 1.449,1.5 3.384,2.3 5.833,2.3 h 89.398 c 26.905,0 48.039,-6.3 63.374,-19 15.344,-12.7 23.015,-31.2 23.015,-55.4 0,-24 -7.671,-42.2 -23.015,-54.5 -15.335,-12.4 -36.469,-18.5 -63.374,-18.5 h -49.032 v -78.1 c 0,-2.5 -0.775,-4.4 -2.335,-5.8 -1.562,-1.5 -3.557,-2.2 -5.999,-2.2 h -32.032 c -2.223,0 -4.113,0.8 -5.667,2.3"
           style="fill:#275796;fill-opacity:1;fill-rule:nonzero;stroke:none"
           id="path10560"
           inkscape:connector-curvature="0" />
      </g>
      <g
         id="g10562"
         transform="scale(0.448144)">
        <path
           d="m 1117.31,16065.5 c -1.55,1.6 -2.35,3.5 -2.35,5.7 v 220.8 c 0,2.4 0.8,4.4 2.35,5.8 1.55,1.5 3.44,2.2 5.66,2.2 H 1151 c 2.43,0 4.38,-0.7 5.82,-2.2 1.46,-1.4 2.17,-3.4 2.17,-5.8 v -220.8 c 0,-2.2 -0.71,-4.1 -2.17,-5.7 -1.44,-1.5 -3.39,-2.3 -5.82,-2.3 h -28.03 c -2.22,0 -4.11,0.8 -5.66,2.3"
           style="fill:#275796;fill-opacity:1;fill-rule:nonzero;stroke:none"
           id="path10564"
           inkscape:connector-curvature="0" />
      </g>
      <g
         id="g10566"
         transform="scale(0.446494)">
        <path
           d="m 1666.06,16163.4 c 7.81,8.1 11.72,19.7 11.72,34.8 v 6.7 l -33.48,-5.3 c -25.66,-4 -38.49,-12.6 -38.49,-25.8 0,-7.1 2.95,-12.7 8.87,-16.6 5.91,-3.9 13,-5.8 21.26,-5.8 12.27,0 22.31,4 30.12,12 z m -72.79,-37.3 c -9.5,4.6 -16.97,10.8 -22.44,18.6 -5.46,7.8 -8.2,16.4 -8.2,25.7 0,15.2 6.13,27.5 18.41,36.9 12.27,9.3 29.12,15.7 50.55,19.1 l 45.85,6.7 v 7 c 0,9.6 -2.45,16.8 -7.36,21.7 -4.91,4.9 -12.72,7.4 -23.43,7.4 -7.37,0 -13.28,-1.3 -17.74,-4 -4.47,-2.7 -8.1,-5.4 -10.88,-8.2 -2.79,-2.8 -4.64,-4.6 -5.53,-5.5 -0.89,-2.7 -2.57,-4 -5.02,-4 h -26.1 c -2.02,0 -3.75,0.6 -5.19,1.9 -1.46,1.4 -2.17,3.2 -2.17,5.4 0.22,5.6 2.95,11.9 8.19,18.9 5.25,7.1 13.33,13.2 24.27,18.4 10.93,5.3 24.43,7.9 40.5,7.9 26.33,0 45.52,-5.9 57.58,-17.7 12.04,-11.9 18.06,-27.4 18.06,-46.6 v -105.1 c 0,-2.2 -0.71,-4.1 -2.17,-5.7 -1.45,-1.5 -3.41,-2.3 -5.86,-2.3 h -27.78 c -2.24,0 -4.12,0.8 -5.68,2.3 -1.58,1.6 -2.35,3.5 -2.35,5.7 v 13.1 c -4.91,-7.2 -11.83,-13 -20.75,-17.6 -8.93,-4.6 -20.09,-6.9 -33.48,-6.9 -11.37,0 -21.81,2.3 -31.28,6.9"
           style="fill:#275796;fill-opacity:1;fill-rule:nonzero;stroke:none"
           id="path10568"
           inkscape:connector-curvature="0" />
      </g>
      <g
         id="g10570"
         transform="scale(0.448144)">
        <path
           d="m 2120.11,16079.1 c -10.24,10.5 -15.34,26 -15.34,46.5 v 75.3 h -26.35 c -2.23,0 -4.12,0.8 -5.67,2.4 -1.56,1.5 -2.34,3.4 -2.34,5.7 v 19.6 c 0,2.2 0.78,4.1 2.34,5.7 1.55,1.5 3.44,2.3 5.67,2.3 h 26.35 v 55.4 c 0,2.4 0.76,4.4 2.32,5.8 1.56,1.5 3.46,2.2 5.69,2.2 h 27.67 c 2.44,0 4.39,-0.7 5.84,-2.2 1.44,-1.4 2.16,-3.4 2.16,-5.8 v -55.4 h 41.7 c 2.21,0 4.1,-0.8 5.65,-2.3 1.56,-1.6 2.34,-3.5 2.34,-5.7 v -19.6 c 0,-2.3 -0.78,-4.2 -2.34,-5.7 -1.55,-1.6 -3.44,-2.4 -5.65,-2.4 h -41.7 v -71.7 c 0,-9.5 1.68,-16.7 5.01,-21.6 3.34,-4.9 8.78,-7.4 16.33,-7.4 h 23.36 c 2.44,0 4.37,-0.7 5.83,-2.1 1.43,-1.5 2.18,-3.4 2.18,-5.9 v -21 c 0,-2.2 -0.75,-4.1 -2.18,-5.7 -1.46,-1.5 -3.39,-2.3 -5.83,-2.3 h -27.36 c -20.22,0 -35.46,5.3 -45.68,15.9"
           style="fill:#275796;fill-opacity:1;fill-rule:nonzero;stroke:none"
           id="path10572"
           inkscape:connector-curvature="0" />
      </g>
      <g
         id="g10574"
         transform="scale(0.446402)">
        <path
           d="m 2573.2,16128.2 c -1.57,1.6 -2.35,3.5 -2.35,5.7 v 19.5 c 0,2 0.38,3.8 1.16,5.3 0.78,1.6 1.97,3.5 3.52,5.7 l 85.36,100.1 h -79.34 c -2.21,0 -4.12,0.9 -5.69,2.5 -1.57,1.7 -2.33,3.7 -2.33,5.9 v 19.1 c 0,2.2 0.76,4.1 2.33,5.7 1.57,1.5 3.48,2.3 5.69,2.3 h 127.58 c 2.22,0 4.12,-0.8 5.67,-2.3 1.56,-1.6 2.35,-3.5 2.35,-5.7 v -20.8 c 0,-1.8 -0.49,-3.6 -1.5,-5.3 -1.01,-1.8 -2.06,-3.5 -3.18,-5.1 l -83.7,-99.4 h 87.03 c 2.24,0 4.15,-0.8 5.69,-2.3 1.57,-1.6 2.36,-3.6 2.36,-6.1 v -19.1 c 0,-2.2 -0.74,-4.1 -2.18,-5.7 -1.45,-1.5 -3.4,-2.3 -5.87,-2.3 h -136.91 c -2.24,0 -4.15,0.8 -5.69,2.3"
           style="fill:#275796;fill-opacity:1;fill-rule:nonzero;stroke:none"
           id="path10576"
           inkscape:connector-curvature="0" />
      </g>
      <g
         id="g10578"
         transform="scale(0.434705)">
        <path
           d="m 627.725,16048 c -1.599,1.6 -2.408,3.5 -2.408,5.8 v 133.8 H 597.47 c -2.291,0 -4.242,0.8 -5.841,2.4 -1.61,1.6 -2.408,3.5 -2.408,5.8 v 20.3 c 0,2.3 0.798,4.2 2.408,5.8 1.599,1.7 3.55,2.5 5.841,2.5 h 27.847 v 13.7 c 0,20.9 5.617,36.4 16.848,46.6 11.223,10.2 28.189,15.3 50.88,15.3 h 23.722 c 2.291,0 4.242,-0.8 5.85,-2.4 1.59,-1.6 2.399,-3.6 2.399,-5.9 v -20.3 c 0,-2.3 -0.809,-4.2 -2.399,-5.8 -1.608,-1.6 -3.559,-2.4 -5.85,-2.4 H 694.77 c -8.941,0 -15.249,-2.2 -18.906,-6.5 -3.676,-4.4 -5.51,-11.2 -5.51,-20.3 v -12 h 42.98 c 2.283,0 4.243,-0.8 5.841,-2.5 1.599,-1.6 2.409,-3.5 2.409,-5.8 v -20.3 c 0,-2.3 -0.81,-4.2 -2.409,-5.8 -1.598,-1.6 -3.558,-2.4 -5.841,-2.4 h -42.98 v -133.8 c 0,-2.3 -0.745,-4.2 -2.227,-5.8 -1.502,-1.6 -3.506,-2.4 -6.023,-2.4 h -28.538 c -2.283,0 -4.242,0.8 -5.841,2.4"
           style="fill:#275796;fill-opacity:1;fill-rule:nonzero;stroke:none"
           id="path10580"
           inkscape:connector-curvature="0" />
      </g>
      <g
         id="g10582"
         transform="scale(0.434641)">
        <path
           d="m 1186.25,16261.1 c -1.37,1.4 -2.06,3.3 -2.06,5.5 v 25.5 c 0,2.3 0.69,4.2 2.06,5.7 1.39,1.4 3.22,2.2 5.5,2.2 h 25.45 c 2.3,0 4.18,-0.8 5.68,-2.2 1.48,-1.5 2.23,-3.4 2.23,-5.7 v -25.5 c 0,-2.2 -0.75,-4.1 -2.23,-5.5 -1.5,-1.3 -3.38,-2 -5.68,-2 h -25.45 c -2.28,0 -4.11,0.7 -5.5,2 z m -64.97,0 c -1.39,1.4 -2.08,3.3 -2.08,5.5 v 25.5 c 0,2.3 0.69,4.2 2.08,5.7 1.36,1.4 3.2,2.2 5.49,2.2 h 25.45 c 2.29,0 4.18,-0.8 5.67,-2.2 1.49,-1.5 2.24,-3.4 2.24,-5.7 v -25.5 c 0,-2.2 -0.75,-4.1 -2.24,-5.5 -1.49,-1.3 -3.38,-2 -5.67,-2 h -25.45 c -2.29,0 -4.13,0.7 -5.49,2 z m -16.16,-196 c -12.16,13.8 -18.24,32.7 -18.24,56.8 v 96.6 c 0,2.5 0.8,4.5 2.41,6 1.6,1.5 3.55,2.3 5.84,2.3 h 30.95 c 2.3,0 4.23,-0.8 5.84,-2.5 1.61,-1.6 2.42,-3.5 2.42,-5.8 v -94.6 c 0,-28.2 12.25,-42.3 36.79,-42.3 11.91,0 21.38,3.8 28.36,11.4 6.99,7.6 10.5,17.9 10.5,30.9 v 94.6 c 0,2.5 0.8,4.5 2.4,6 1.61,1.5 3.56,2.3 5.84,2.3 h 30.6 c 2.54,0 4.53,-0.8 6.02,-2.3 1.5,-1.5 2.24,-3.5 2.24,-6 v -162.3 c 0,-2.3 -0.74,-4.3 -2.24,-5.8 -1.49,-1.7 -3.48,-2.5 -6.02,-2.5 h -28.53 c -2.29,0 -4.25,0.8 -5.84,2.5 -1.62,1.5 -2.41,3.5 -2.41,5.8 v 14.1 c -12.61,-17.2 -31.63,-25.8 -57.08,-25.8 -21.1,0 -37.71,6.9 -49.85,20.6"
           style="fill:#275796;fill-opacity:1;fill-rule:nonzero;stroke:none"
           id="path10584"
           inkscape:connector-curvature="0" />
      </g>
      <g
         id="g10586"
         transform="scale(0.432688)">
        <path
           d="m 1639.58,16122.8 c -1.62,1.6 -2.42,3.6 -2.42,5.9 v 162.7 c 0,2.5 0.8,4.6 2.42,6.2 1.61,1.6 3.56,2.4 5.87,2.4 h 28.32 c 2.53,0 4.61,-0.8 6.22,-2.4 1.6,-1.6 2.42,-3.7 2.42,-6.2 v -14.2 c 11.52,15.2 28.08,22.8 49.73,22.8 h 14.51 c 2.53,0 4.54,-0.8 6.05,-2.3 1.49,-1.4 2.24,-3.5 2.24,-6 v -25.2 c 0,-2.3 -0.75,-4.3 -2.24,-5.9 -1.51,-1.6 -3.52,-2.4 -6.05,-2.4 h -27.28 c -10.83,0 -19.35,-3.1 -25.56,-9.3 -6.22,-6.2 -9.33,-14.8 -9.33,-25.6 v -94.6 c 0,-2.3 -0.8,-4.3 -2.42,-5.9 -1.61,-1.6 -3.56,-2.4 -5.87,-2.4 h -30.74 c -2.31,0 -4.26,0.8 -5.87,2.4"
           style="fill:#275796;fill-opacity:1;fill-rule:nonzero;stroke:none"
           id="path10588"
           inkscape:connector-curvature="0" />
      </g>
      <g
         id="g10590"
         transform="scale(0.420559)">
        <path
           d="m 589.663,16061.9 -41.927,227.8 -0.352,2.8 c 0,2.2 0.697,4 2.128,5.4 1.419,1.4 3.193,2.1 5.331,2.1 h 31.979 c 3.074,0 5.331,-0.5 6.753,-1.6 1.42,-1.1 2.359,-2.9 2.842,-5.5 l 29.498,-159.9 31.628,103 c 2.358,6 6.269,8.9 11.721,8.9 h 19.544 c 3.074,0 5.571,-0.9 7.466,-2.7 1.886,-1.7 3.196,-3.8 3.912,-6.2 l 31.978,-103 29.138,159.9 c 0.716,4.7 4.031,7.1 9.956,7.1 h 31.981 c 1.893,0 3.557,-0.7 4.967,-2.1 1.422,-1.4 2.148,-3.2 2.148,-5.4 0,-1.2 -0.131,-2.1 -0.364,-2.8 l -41.935,-227.8 c -0.476,-3.3 -1.841,-5.9 -4.088,-7.8 -2.247,-1.9 -5.145,-2.9 -8.702,-2.9 h -24.168 c -3.318,0 -6.037,0.9 -8.175,2.7 -2.126,1.8 -3.557,3.8 -4.264,6.2 l -39.799,118 -39.799,-118 c -1.896,-5.9 -6.037,-8.9 -12.439,-8.9 h -24.158 c -6.881,0 -11.145,3.6 -12.8,10.7"
           style="fill:#275796;fill-opacity:1;fill-rule:nonzero;stroke:none"
           id="path10592"
           inkscape:connector-curvature="0" />
      </g>
      <g
         id="g10594"
         transform="scale(0.419)">
        <path
           d="m 1788.57,16220.1 v 0.7 c 0,14 -3.51,25.3 -10.52,33.7 -7.02,8.5 -16.58,12.7 -28.71,12.7 -12.13,0 -21.63,-4.2 -28.53,-12.7 -6.9,-8.4 -10.35,-19.7 -10.35,-33.7 v -0.7 z m -102.19,-89.9 c -15.57,15.2 -23.84,36.9 -24.78,64.9 l -0.36,8.9 c 0,29.8 7.78,53.2 23.36,70.3 15.57,17.2 37.15,25.7 64.74,25.7 28.29,0 50.11,-8.5 65.45,-25.7 15.34,-17.1 23.01,-39.9 23.01,-68.5 v -7.5 c 0,-2.3 -0.83,-4.3 -2.5,-6 -1.66,-1.7 -3.8,-2.5 -6.42,-2.5 h -118.42 v -2.9 c 0.48,-13.3 4.1,-24.3 10.88,-33 6.78,-8.7 16.1,-13 28,-13 13.55,0 24.61,5.5 33.17,16.4 2.14,2.6 3.8,4.2 5,4.8 1.18,0.6 3.2,0.9 6.07,0.9 h 31.39 c 2.13,0 3.97,-0.6 5.53,-1.7 1.53,-1.2 2.31,-2.9 2.31,-5.1 0,-5.7 -3.4,-12.4 -10.16,-20.1 -6.79,-7.7 -16.48,-14.4 -29.07,-20.1 -12.62,-5.8 -27.24,-8.6 -43.89,-8.6 -26.62,0 -47.74,7.6 -63.31,22.8"
           style="fill:#275796;fill-opacity:1;fill-rule:nonzero;stroke:none"
           id="path10596"
           inkscape:connector-curvature="0" />
      </g>
      <g
         id="g10598"
         transform="scale(0.419)">
        <path
           d="m 2198.45,16113.4 c -1.66,1.7 -2.49,3.7 -2.49,6.1 v 168.4 c 0,2.6 0.83,4.7 2.49,6.2 1.67,1.6 3.68,2.3 6.06,2.3 h 29.62 c 2.6,0 4.68,-0.7 6.23,-2.3 1.54,-1.5 2.32,-3.6 2.32,-6.2 v -14.7 c 14.5,17.9 34.36,26.8 59.57,26.8 21.88,0 39.24,-7.1 52.07,-21.4 12.84,-14.3 19.26,-33.9 19.26,-58.8 v -100.3 c 0,-2.4 -0.76,-4.4 -2.32,-6.1 -1.54,-1.6 -3.63,-2.5 -6.22,-2.5 h -32.11 c -2.39,0 -4.4,0.9 -6.06,2.5 -1.69,1.7 -2.51,3.7 -2.51,6.1 v 98.1 c 0,13.8 -3.38,24.6 -10.16,32.3 -6.79,7.7 -16.48,11.6 -29.07,11.6 -12.13,0 -21.89,-3.9 -29.24,-11.8 -7.39,-7.8 -11.07,-18.5 -11.07,-32.1 v -98.1 c 0,-2.4 -0.78,-4.4 -2.32,-6.1 -1.55,-1.6 -3.63,-2.5 -6.24,-2.5 h -31.75 c -2.38,0 -4.39,0.9 -6.06,2.5"
           style="fill:#275796;fill-opacity:1;fill-rule:nonzero;stroke:none"
           id="path10600"
           inkscape:connector-curvature="0" />
      </g>
    </g>
  </g>
</svg>
